# xmcd CD Database Entry
#
# Track frame offsets:
# 150
# 12890
# 29722
# 39521
# 54414
# 68683
# 79863
# 93584
# 108820
# 124051
# 138134
# 156919
# 170047
# 184969
# 199897
#
# Disc length: 2864 seconds
#
# Revision: 3
# Processed by: cddbd v1.5.2PL0 Copyright (c) Steve Scherf et al.
# Submitted via: tcd 2.0b
#
DISCID=cb0b2e0f
DTITLE=ボサノヴァギターの調べ
DYEAR=1900
DGENRE=
TTITLE0=オルフェのサンバ
TTITLE1=トラック 2
TTITLE2=トラック 3
TTITLE3=トラック 4
TTITLE4=トラック 5
TTITLE5=トラック 6
TTITLE6=トラック 7
TTITLE7=トラック 8
TTITLE8=トラック 9
TTITLE9=トラック 10
TTITLE10=トラック 11
TTITLE11=トラック 12
TTITLE12=トラック 13
TTITLE13=トラック 14
TTITLE14=トラック 15
EXTD=\n\n\n\n\n\n\n\n\n\n\n\n\n\n\n\n\n\n
EXTT0=
EXTT1=
EXTT2=
EXTT3=トリステーザ
EXTT4=
EXTT5=
EXTT6=
EXTT7=
EXTT8=
EXTT9=
EXTT10=
EXTT11=
EXTT12=
EXTT13=
EXTT14=
PLAYORDER=
